<svg width="24" height="25" viewBox="0 0 24 25" fill="none" xmlns="http://www.w3.org/2000/svg">
<path d="M3.296 9.93627H7.02739V21.015H3.296V9.93627ZM5.1618 4.4292C6.35439 4.4292 7.32359 5.32384 7.32359 6.42655C7.32359 7.52815 6.35439 8.42279 5.1618 8.42279C3.9664 8.42279 3 7.52815 3 6.42655C3 5.32384 3.9664 4.4292 5.1618 4.4292Z" fill="white"/>
<path d="M9.36707 9.9362H12.9451V11.4512H12.9961C13.4941 10.5798 14.7113 9.66187 16.5255 9.66187C20.3028 9.66187 21 11.9557 21 14.9387V21.015H17.2715V15.6273C17.2715 14.3422 17.2473 12.6897 15.3331 12.6897C13.3919 12.6897 13.0957 14.0904 13.0957 15.535V21.015H9.36707V9.9362Z" fill="white"/>
</svg>
